# xmcd CD database file
#
# Track frame offsets:
#	150
#	11761
#	27036
#	48622
#	60660
#	77220
#	89642
#	105555
#	121625
#	141338
#	157001
#	173783
#
# Disc length: 2462 seconds
#
# Revision: 0
# Processed by: cddbd v1.5.2PL0 Copyright (c) Steve Scherf et al.
# Submitted via: CDex 1.70beta2
#
DISCID=9b099c0c
DTITLE=Po' Ramblin' Boys - Toil, Tears, and Trouble
DYEAR=2019
DGENRE=Country
TTITLE0=Next Train South
TTITLE1=Hickory, Walnut and Pine
TTITLE2=Cold Hard Truth
TTITLE3=Toil, Tears, and Trouble
TTITLE4=Ice Covered Birches
TTITLE5=Old New Borrowed And Blue
TTITLE6=Bidding America Goodbye
TTITLE7=Don't Kneel At My Graveside
TTITLE8=Ice On The Timber
TTITLE9=Widow Mae
TTITLE10=Searching For A Soldier's Grave
TTITLE11=Longing For The Ozarks
EXTD=YEAR: 2019
EXTT0=
EXTT1=
EXTT2=
EXTT3=
EXTT4=
EXTT5=
EXTT6=
EXTT7=
EXTT8=
EXTT9=
EXTT10=
EXTT11=
PLAYORDER=
